{"asset":{"version":"2.0","generator":"VECTARY"},"scene":0,"extensionsUsed":["KHR_texture_transform","KHR_lights_punctual"],"extensionsRequired":["KHR_lights_punctual"],"nodes":[{"translation":[0,0,0],"scale":[0.254,0.254,0.254],"rotation":[0,0,0,1],"name":"bed_jumbo","children":[1,2]},{"translation":[0,0,0],"scale":[1,1,1],"rotation":[0,0,0,1],"name":"grey_bed_jumbo:polySurface10 grey_bed_jumbo:group2","mesh":0},{"translation":[0,0,0],"scale":[1,1,1],"rotation":[0,0,0,1],"name":"grey_bed_jumbo:group2 grey_bed_jumbo:polySurface8","mesh":1},{"translation":[-19.468656200877923,21.64840271950157,-40.050757397418224],"scale":[1,1,1],"rotation":[-0.057179121521281684,-0.9414574860326927,-0.2595804830429339,0.20737965878613462],"name":"Camera","camera":0}],"materials":[{"pbrMetallicRoughness":{"baseColorFactor":[0.36360389792055325,0.1668722718907655,0.09626612306333969,1],"metallicFactor":1,"roughnessFactor":0.6},"name":"grey_bed_jumbo:polySurface10 grey_bed_jumbo:group2 material","normalTexture":{"index":0,"scale":1.6,"extensions":{"KHR_texture_transform":{"offset":[0,0],"scale":[1,1],"rotation":0}},"texCoord":0},"emissiveFactor":[0,0,0],"alphaMode":"OPAQUE","doubleSided":false},{"pbrMetallicRoughness":{"baseColorFactor":[1,1,1,1],"baseColorTexture":{"index":1,"extensions":{"KHR_texture_transform":{"offset":[0,0],"scale":[1,1],"rotation":0}},"texCoord":0},"metallicFactor":0,"roughnessFactor":0.8},"name":"grey_bed_jumbo:group2 grey_bed_jumbo:polySurface8 material","normalTexture":{"index":0,"scale":2,"extensions":{"KHR_texture_transform":{"offset":[0,0],"scale":[1,1],"rotation":0}},"texCoord":0},"emissiveFactor":[0,0,0],"alphaMode":"OPAQUE","doubleSided":false}],"textures":[{"sampler":0,"source":0},{"sampler":0,"source":1}],"images":[{"uri":"9bac242c-fd40-4022-8e32-3693de133574.jpg","mimeType":"image/jpeg"},{"uri":"11e43ec0-3583-461c-983c-71323183dce9.jpg","mimeType":"image/jpeg"}],"samplers":[{"wrapS":10497,"wrapT":10497}],"meshes":[{"primitives":[{"mode":4,"attributes":{"POSITION":1,"NORMAL":2,"TEXCOORD_0":3},"material":0,"indices":0}]},{"primitives":[{"mode":4,"attributes":{"POSITION":5,"NORMAL":6,"TEXCOORD_0":7},"material":1,"indices":4}]}],"accessors":[{"bufferView":0,"byteOffset":0,"componentType":5125,"count":8460,"type":"SCALAR"},{"bufferView":1,"byteOffset":0,"componentType":5126,"count":8460,"max":[-53.030277252197266,2.671875,43.40801239013672],"min":[-57.40234375,-10.933709144592285,-16.13720703125],"type":"VEC3"},{"bufferView":2,"byteOffset":0,"componentType":5126,"count":8460,"type":"VEC3"},{"bufferView":3,"byteOffset":0,"componentType":5126,"count":8460,"type":"VEC2"},{"bufferView":4,"byteOffset":0,"componentType":5125,"count":106509,"type":"SCALAR"},{"bufferView":5,"byteOffset":0,"componentType":5126,"count":106509,"max":[57.87287139892578,11.942466735839844,46.34846115112305],"min":[-57.13928985595703,-10.605411529541016,-45.996063232421875],"type":"VEC3"},{"bufferView":6,"byteOffset":0,"componentType":5126,"count":106509,"type":"VEC3"},{"bufferView":7,"byteOffset":0,"componentType":5126,"count":106509,"type":"VEC2"}],"bufferViews":[{"buffer":0,"byteOffset":0,"byteLength":33840,"target":34963},{"buffer":0,"byteOffset":33840,"byteLength":101520,"target":34962},{"buffer":0,"byteOffset":135360,"byteLength":101520,"target":34962},{"buffer":0,"byteOffset":236880,"byteLength":67680,"target":34962},{"buffer":0,"byteOffset":304560,"byteLength":426036,"target":34963},{"buffer":0,"byteOffset":730596,"byteLength":1278108,"target":34962},{"buffer":0,"byteOffset":2008704,"byteLength":1278108,"target":34962},{"buffer":0,"byteOffset":3286812,"byteLength":852072,"target":34962}],"cameras":[{"name":"Camera","type":"perspective","extras":{"targetDistance":56.252720441109226},"perspective":{"aspectRatio":1.5224299065420561,"yfov":0.6108652381980153,"zfar":2644.8518619483452,"znear":0.24470848056838285}}],"scenes":[{"nodes":[0,3],"name":"Orange _pattern_jumbo"}],"buffers":[{"byteLength":4138884,"uri":"Orange_pattern_jumbo.bin"}]}