{
    "asset": {
        "version": "2.0",
        "generator": "VECTARY"
    },
    "scene": 0,
    "extensionsUsed": [
        "KHR_texture_transform",
        "KHR_lights_punctual"
    ],
    "extensionsRequired": [
        "KHR_lights_punctual"
    ],
    "nodes": [
        {
            "translation": [
                0,
                0,
                0
            ],
            "scale": [
                0.254,
                0.254,
                0.254
            ],
            "rotation": [
                0,
                0,
                0,
                1
            ],
            "name": "BED_medium",
            "children": [
                1,
                2
            ]
        },
        {
            "translation": [
                0,
                0,
                0
            ],
            "scale": [
                1,
                1,
                1
            ],
            "rotation": [
                0,
                0,
                0,
                1
            ],
            "name": "polySurface10 group5",
            "mesh": 0
        },
        {
            "translation": [
                0,
                0,
                0
            ],
            "scale": [
                1,
                1,
                1
            ],
            "rotation": [
                0,
                0,
                0,
                1
            ],
            "name": "group5 polySurface9",
            "mesh": 1
        },
        {
            "translation": [
                -5.588154896089465,
                7.522860683015797,
                -34.73335635325808
            ],
            "scale": [
                1,
                1,
                1
            ],
            "rotation": [
                -0.006370710361634752,
                -0.9928616277938376,
                -0.06232013856880647,
                0.10149582470636029
            ],
            "name": "Camera",
            "camera": 0
        }
    ],
    "materials": [
        {
            "pbrMetallicRoughness": {
                "baseColorFactor": [
                    0.6253447208024265,
                    0.5295232224172772,
                    0.38891025653905886,
                    1
                ],
                "metallicFactor": 1,
                "roughnessFactor": 0.6
            },
            "name": "polySurface10 group5 material",
            "emissiveFactor": [
                0,
                0,
                0
            ],
            "alphaMode": "OPAQUE",
            "doubleSided": false
        },
        {
            "pbrMetallicRoughness": {
                "baseColorFactor": [
                    1,
                    1,
                    1,
                    1
                ],
                "baseColorTexture": {
                    "index": 0,
                    "extensions": {
                        "KHR_texture_transform": {
                            "offset": [
                                0,
                                0
                            ],
                            "scale": [
                                1,
                                1
                            ],
                            "rotation": 0
                        }
                    },
                    "texCoord": 0
                },
                "metallicFactor": 0,
                "roughnessFactor": 0.8
            },
            "name": "group5 polySurface9 material",
            "normalTexture": {
                "index": 1,
                "scale": 0.6,
                "extensions": {
                    "KHR_texture_transform": {
                        "offset": [
                            0,
                            0
                        ],
                        "scale": [
                            1,
                            1
                        ],
                        "rotation": 0
                    }
                },
                "texCoord": 0
            },
            "emissiveFactor": [
                0,
                0,
                0
            ],
            "alphaMode": "OPAQUE",
            "doubleSided": false
        }
    ],
    "meshes": [
        {
            "primitives": [
                {
                    "mode": 4,
                    "attributes": {
                        "POSITION": 1,
                        "NORMAL": 2,
                        "TEXCOORD_0": 3
                    },
                    "material": 0,
                    "indices": 0
                }
            ]
        },
        {
            "primitives": [
                {
                    "mode": 4,
                    "attributes": {
                        "POSITION": 5,
                        "NORMAL": 6,
                        "TEXCOORD_0": 7
                    },
                    "material": 1,
                    "indices": 4
                }
            ]
        }
    ],
    "accessors": [
        {
            "bufferView": 0,
            "byteOffset": 0,
            "componentType": 5125,
            "count": 8460,
            "type": "SCALAR"
        },
        {
            "bufferView": 1,
            "byteOffset": 0,
            "componentType": 5126,
            "count": 8460,
            "max": [
                -35.544254302978516,
                1.4835549592971802,
                24.32958984375
            ],
            "min": [
                -38.12361526489258,
                -7.374701023101807,
                -9.073975563049316
            ],
            "type": "VEC3"
        },
        {
            "bufferView": 2,
            "byteOffset": 0,
            "componentType": 5126,
            "count": 8460,
            "type": "VEC3"
        },
        {
            "bufferView": 3,
            "byteOffset": 0,
            "componentType": 5126,
            "count": 8460,
            "type": "VEC2"
        },
        {
            "bufferView": 4,
            "byteOffset": 0,
            "componentType": 5125,
            "count": 106509,
            "type": "SCALAR"
        },
        {
            "bufferView": 5,
            "byteOffset": 0,
            "componentType": 5126,
            "count": 106509,
            "max": [
                38.156333923339844,
                7.538765907287598,
                25.977670669555664
            ],
            "min": [
                -37.8473014831543,
                -7.31619119644165,
                -25.7801570892334
            ],
            "type": "VEC3"
        },
        {
            "bufferView": 6,
            "byteOffset": 0,
            "componentType": 5126,
            "count": 106509,
            "type": "VEC3"
        },
        {
            "bufferView": 7,
            "byteOffset": 0,
            "componentType": 5126,
            "count": 106509,
            "type": "VEC2"
        }
    ],
    "bufferViews": [
        {
            "buffer": 0,
            "byteOffset": 0,
            "byteLength": 33840,
            "target": 34963
        },
        {
            "buffer": 0,
            "byteOffset": 33840,
            "byteLength": 101520,
            "target": 34962
        },
        {
            "buffer": 0,
            "byteOffset": 135360,
            "byteLength": 101520,
            "target": 34962
        },
        {
            "buffer": 0,
            "byteOffset": 236880,
            "byteLength": 67680,
            "target": 34962
        },
        {
            "buffer": 0,
            "byteOffset": 304560,
            "byteLength": 426036,
            "target": 34963
        },
        {
            "buffer": 0,
            "byteOffset": 730596,
            "byteLength": 1278108,
            "target": 34962
        },
        {
            "buffer": 0,
            "byteOffset": 2008704,
            "byteLength": 1278108,
            "target": 34962
        },
        {
            "buffer": 0,
            "byteOffset": 3286812,
            "byteLength": 852072,
            "target": 34962
        }
    ],
    "textures": [
        {
            "sampler": 0,
            "source": 0
        },
        {
            "sampler": 0,
            "source": 1
        }
    ],
    "images": [
        {
            "uri": "34aa4ce8-8637-4752-b54b-703a6b497dd0.jpg",
            "mimeType": "image/jpeg"
        },
        {
            "uri": "c4acf673-1870-4821-a616-2506670df94d.jpg",
            "mimeType": "image/jpeg"
        }
    ],
    "samplers": [
        {
            "wrapS": 10497,
            "wrapT": 10497
        }
    ],
    "cameras": [
        {
            "name": "Camera",
            "type": "perspective",
            "extras": {
                "targetDistance": 37.14059360185572
            },
            "perspective": {
                "aspectRatio": 1.5224299065420561,
                "yfov": 0.6108652381980153,
                "zfar": 1918.5184087113887,
                "znear": 0.17016373142037935
            }
        }
    ],
    "scenes": [
        {
            "nodes": [
                0,
                3
            ],
            "name": "Yellow_velvet_medium"
        }
    ],
    "buffers": [
        {
            "byteLength": 4138884,
            "uri": "Yellow_velvet_medium.bin"
        }
    ]
}